<?xml version="1.0" encoding="UTF-8"?>
<!DOCTYPE svg PUBLIC "-//W3C//DTD SVG 1.1//EN" "http://www.w3.org/Graphics/SVG/1.1/DTD/svg11.dtd">
<svg width="243mm" height="92mm" viewBox="0 0 24300 9200" version="1.1" xmlns="http://www.w3.org/2000/svg" stroke-width="28.222" stroke-linejoin="round" xml:space="preserve">
 <path fill="rgb(255,255,255)" stroke="none" d="M 12141,9217 L 0,9217 0,0 24282,0 24282,9217 12141,9217 Z"/>
 <path fill="none" stroke="rgb(179,179,179)" stroke-linejoin="round" d="M 11539,7121 L 2428,7121 2428,382 20650,382 20650,7121 11539,7121 Z"/>
 <path fill="none" stroke="rgb(179,179,179)" stroke-linejoin="round" d="M 20650,7120 L 2428,7120"/>
 <path fill="none" stroke="rgb(179,179,179)" stroke-linejoin="round" d="M 20650,5996 L 2428,5996"/>
 <path fill="none" stroke="rgb(179,179,179)" stroke-linejoin="round" d="M 20650,4873 L 2428,4873"/>
 <path fill="none" stroke="rgb(179,179,179)" stroke-linejoin="round" d="M 20650,3751 L 2428,3751"/>
 <path fill="none" stroke="rgb(179,179,179)" stroke-linejoin="round" d="M 20650,2627 L 2428,2627"/>
 <path fill="none" stroke="rgb(179,179,179)" stroke-linejoin="round" d="M 20650,1504 L 2428,1504"/>
 <path fill="none" stroke="rgb(179,179,179)" stroke-linejoin="round" d="M 20650,381 L 2428,381"/>
 <path fill="none" stroke="rgb(179,179,179)" stroke-linejoin="round" d="M 2428,7270 L 2428,7120"/>
 <path fill="none" stroke="rgb(179,179,179)" stroke-linejoin="round" d="M 2428,7270 L 2428,7120"/>
 <path fill="none" stroke="rgb(179,179,179)" stroke-linejoin="round" d="M 4452,7270 L 4452,7120"/>
 <path fill="none" stroke="rgb(179,179,179)" stroke-linejoin="round" d="M 4452,7270 L 4452,7120"/>
 <path fill="none" stroke="rgb(179,179,179)" stroke-linejoin="round" d="M 6477,7270 L 6477,7120"/>
 <path fill="none" stroke="rgb(179,179,179)" stroke-linejoin="round" d="M 6477,7270 L 6477,7120"/>
 <path fill="none" stroke="rgb(179,179,179)" stroke-linejoin="round" d="M 8502,7270 L 8502,7120"/>
 <path fill="none" stroke="rgb(179,179,179)" stroke-linejoin="round" d="M 8502,7270 L 8502,7120"/>
 <path fill="none" stroke="rgb(179,179,179)" stroke-linejoin="round" d="M 10527,7270 L 10527,7120"/>
 <path fill="none" stroke="rgb(179,179,179)" stroke-linejoin="round" d="M 10527,7270 L 10527,7120"/>
 <path fill="none" stroke="rgb(179,179,179)" stroke-linejoin="round" d="M 12550,7270 L 12550,7120"/>
 <path fill="none" stroke="rgb(179,179,179)" stroke-linejoin="round" d="M 12550,7270 L 12550,7120"/>
 <path fill="none" stroke="rgb(179,179,179)" stroke-linejoin="round" d="M 14575,7270 L 14575,7120"/>
 <path fill="none" stroke="rgb(179,179,179)" stroke-linejoin="round" d="M 14575,7270 L 14575,7120"/>
 <path fill="none" stroke="rgb(179,179,179)" stroke-linejoin="round" d="M 16600,7270 L 16600,7120"/>
 <path fill="none" stroke="rgb(179,179,179)" stroke-linejoin="round" d="M 16600,7270 L 16600,7120"/>
 <path fill="none" stroke="rgb(179,179,179)" stroke-linejoin="round" d="M 18625,7270 L 18625,7120"/>
 <path fill="none" stroke="rgb(179,179,179)" stroke-linejoin="round" d="M 18625,7270 L 18625,7120"/>
 <path fill="none" stroke="rgb(179,179,179)" stroke-linejoin="round" d="M 20650,7270 L 20650,7120"/>
 <path fill="none" stroke="rgb(179,179,179)" stroke-linejoin="round" d="M 20650,7270 L 20650,7120"/>
 <path fill="none" stroke="rgb(179,179,179)" stroke-linejoin="round" d="M 2428,7120 L 20650,7120"/>
 <path fill="none" stroke="rgb(179,179,179)" stroke-linejoin="round" d="M 2278,7120 L 2428,7120"/>
 <path fill="none" stroke="rgb(179,179,179)" stroke-linejoin="round" d="M 2278,7120 L 2428,7120"/>
 <path fill="none" stroke="rgb(179,179,179)" stroke-linejoin="round" d="M 2278,5996 L 2428,5996"/>
 <path fill="none" stroke="rgb(179,179,179)" stroke-linejoin="round" d="M 2278,5996 L 2428,5996"/>
 <path fill="none" stroke="rgb(179,179,179)" stroke-linejoin="round" d="M 2278,4873 L 2428,4873"/>
 <path fill="none" stroke="rgb(179,179,179)" stroke-linejoin="round" d="M 2278,4873 L 2428,4873"/>
 <path fill="none" stroke="rgb(179,179,179)" stroke-linejoin="round" d="M 2278,3751 L 2428,3751"/>
 <path fill="none" stroke="rgb(179,179,179)" stroke-linejoin="round" d="M 2278,3751 L 2428,3751"/>
 <path fill="none" stroke="rgb(179,179,179)" stroke-linejoin="round" d="M 2278,2627 L 2428,2627"/>
 <path fill="none" stroke="rgb(179,179,179)" stroke-linejoin="round" d="M 2278,2627 L 2428,2627"/>
 <path fill="none" stroke="rgb(179,179,179)" stroke-linejoin="round" d="M 2278,1504 L 2428,1504"/>
 <path fill="none" stroke="rgb(179,179,179)" stroke-linejoin="round" d="M 2278,1504 L 2428,1504"/>
 <path fill="none" stroke="rgb(179,179,179)" stroke-linejoin="round" d="M 2278,381 L 2428,381"/>
 <path fill="none" stroke="rgb(179,179,179)" stroke-linejoin="round" d="M 2278,381 L 2428,381"/>
 <path fill="none" stroke="rgb(179,179,179)" stroke-linejoin="round" d="M 2428,7120 L 2428,381"/>
 <path fill="rgb(255,66,14)" stroke="none" d="M 10807,493 L 10932,618 11057,493 10932,368 10807,493 Z"/>
 <path fill="none" stroke="rgb(255,66,14)" stroke-linejoin="round" d="M 10807,493 L 10932,618 11057,493 10932,368 10807,493 Z"/>
 <path fill="rgb(255,66,14)" stroke="none" d="M 11009,3414 L 11134,3539 11259,3414 11134,3289 11009,3414 Z"/>
 <path fill="none" stroke="rgb(255,66,14)" stroke-linejoin="round" d="M 11009,3414 L 11134,3539 11259,3414 11134,3289 11009,3414 Z"/>
 <path fill="rgb(255,66,14)" stroke="none" d="M 12830,4425 L 12955,4550 13080,4425 12955,4300 12830,4425 Z"/>
 <path fill="none" stroke="rgb(255,66,14)" stroke-linejoin="round" d="M 12830,4425 L 12955,4550 13080,4425 12955,4300 12830,4425 Z"/>
 <path fill="rgb(255,66,14)" stroke="none" d="M 13033,3863 L 13158,3988 13283,3863 13158,3738 13033,3863 Z"/>
 <path fill="none" stroke="rgb(255,66,14)" stroke-linejoin="round" d="M 13033,3863 L 13158,3988 13283,3863 13158,3738 13033,3863 Z"/>
 <path fill="rgb(255,66,14)" stroke="none" d="M 13033,1055 L 13158,1180 13283,1055 13158,930 13033,1055 Z"/>
 <path fill="none" stroke="rgb(255,66,14)" stroke-linejoin="round" d="M 13033,1055 L 13158,1180 13283,1055 13158,930 13033,1055 Z"/>
 <path fill="rgb(255,66,14)" stroke="none" d="M 13438,2403 L 13563,2528 13688,2403 13563,2278 13438,2403 Z"/>
 <path fill="none" stroke="rgb(255,66,14)" stroke-linejoin="round" d="M 13438,2403 L 13563,2528 13688,2403 13563,2278 13438,2403 Z"/>
 <path fill="rgb(255,66,14)" stroke="none" d="M 13843,381 L 13968,506 14093,381 13968,256 13843,381 Z"/>
 <path fill="none" stroke="rgb(255,66,14)" stroke-linejoin="round" d="M 13843,381 L 13968,506 14093,381 13968,256 13843,381 Z"/>
 <path fill="rgb(255,66,14)" stroke="none" d="M 14653,2178 L 14778,2303 14903,2178 14778,2053 14653,2178 Z"/>
 <path fill="none" stroke="rgb(255,66,14)" stroke-linejoin="round" d="M 14653,2178 L 14778,2303 14903,2178 14778,2053 14653,2178 Z"/>
 <path fill="rgb(255,66,14)" stroke="none" d="M 14855,3638 L 14980,3763 15105,3638 14980,3513 14855,3638 Z"/>
 <path fill="none" stroke="rgb(255,66,14)" stroke-linejoin="round" d="M 14855,3638 L 14980,3763 15105,3638 14980,3513 14855,3638 Z"/>
 <path fill="rgb(255,66,14)" stroke="none" d="M 15058,2290 L 15183,2415 15308,2290 15183,2165 15058,2290 Z"/>
 <path fill="none" stroke="rgb(255,66,14)" stroke-linejoin="round" d="M 15058,2290 L 15183,2415 15308,2290 15183,2165 15058,2290 Z"/>
 <path fill="rgb(255,66,14)" stroke="none" d="M 15058,718 L 15183,843 15308,718 15183,593 15058,718 Z"/>
 <path fill="none" stroke="rgb(255,66,14)" stroke-linejoin="round" d="M 15058,718 L 15183,843 15308,718 15183,593 15058,718 Z"/>
 <path fill="rgb(255,66,14)" stroke="none" d="M 16677,4537 L 16802,4661 16927,4537 16802,4412 16677,4537 Z"/>
 <path fill="none" stroke="rgb(255,66,14)" stroke-linejoin="round" d="M 16677,4537 L 16802,4661 16927,4537 16802,4412 16677,4537 Z"/>
 <path fill="rgb(255,66,14)" stroke="none" d="M 16677,2515 L 16802,2640 16927,2515 16802,2390 16677,2515 Z"/>
 <path fill="none" stroke="rgb(255,66,14)" stroke-linejoin="round" d="M 16677,2515 L 16802,2640 16927,2515 16802,2390 16677,2515 Z"/>
 <path fill="rgb(255,66,14)" stroke="none" d="M 17690,4088 L 17815,4213 17940,4088 17815,3963 17690,4088 Z"/>
 <path fill="none" stroke="rgb(255,66,14)" stroke-linejoin="round" d="M 17690,4088 L 17815,4213 17940,4088 17815,3963 17690,4088 Z"/>
 <path fill="rgb(255,66,14)" stroke="none" d="M 17892,4648 L 18017,4773 18142,4648 18017,4524 17892,4648 Z"/>
 <path fill="none" stroke="rgb(255,66,14)" stroke-linejoin="round" d="M 17892,4648 L 18017,4773 18142,4648 18017,4524 17892,4648 Z"/>
 <path fill="rgb(255,66,14)" stroke="none" d="M 18500,5996 L 18625,6121 18750,5996 18625,5871 18500,5996 Z"/>
 <path fill="none" stroke="rgb(255,66,14)" stroke-linejoin="round" d="M 18500,5996 L 18625,6121 18750,5996 18625,5871 18500,5996 Z"/>
 <path fill="rgb(255,66,14)" stroke="none" d="M 18702,3189 L 18827,3314 18952,3189 18827,3064 18702,3189 Z"/>
 <path fill="none" stroke="rgb(255,66,14)" stroke-linejoin="round" d="M 18702,3189 L 18827,3314 18952,3189 18827,3064 18702,3189 Z"/>
 <path fill="rgb(255,66,14)" stroke="none" d="M 19310,4761 L 19435,4886 19560,4761 19435,4636 19310,4761 Z"/>
 <path fill="none" stroke="rgb(255,66,14)" stroke-linejoin="round" d="M 19310,4761 L 19435,4886 19560,4761 19435,4636 19310,4761 Z"/>
 <path fill="rgb(255,66,14)" stroke="none" d="M 19512,5884 L 19637,6009 19762,5884 19637,5759 19512,5884 Z"/>
 <path fill="none" stroke="rgb(255,66,14)" stroke-linejoin="round" d="M 19512,5884 L 19637,6009 19762,5884 19637,5759 19512,5884 Z"/>
 <path fill="rgb(255,66,14)" stroke="none" d="M 20120,5547 L 20245,5672 20370,5547 20245,5422 20120,5547 Z"/>
 <path fill="none" stroke="rgb(255,66,14)" stroke-linejoin="round" d="M 20120,5547 L 20245,5672 20370,5547 20245,5422 20120,5547 Z"/>
 <path fill="rgb(0,69,134)" stroke="none" d="M 2910,2278 L 2910,2528 3160,2528 3160,2278 2910,2278 Z"/>
 <path fill="none" stroke="rgb(0,69,134)" stroke-linejoin="round" d="M 2910,2278 L 2910,2528 3160,2528 3160,2278 2910,2278 Z"/>
 <path fill="rgb(0,69,134)" stroke="none" d="M 3720,5310 L 3720,5560 3970,5560 3970,5310 3720,5310 Z"/>
 <path fill="none" stroke="rgb(0,69,134)" stroke-linejoin="round" d="M 3720,5310 L 3720,5560 3970,5560 3970,5310 3720,5310 Z"/>
 <path fill="rgb(0,69,134)" stroke="none" d="M 3720,817 L 3720,1067 3970,1067 3970,817 3720,817 Z"/>
 <path fill="none" stroke="rgb(0,69,134)" stroke-linejoin="round" d="M 3720,817 L 3720,1067 3970,1067 3970,817 3720,817 Z"/>
 <path fill="rgb(0,69,134)" stroke="none" d="M 3922,6433 L 3922,6683 4172,6683 4172,6433 3922,6433 Z"/>
 <path fill="none" stroke="rgb(0,69,134)" stroke-linejoin="round" d="M 3922,6433 L 3922,6683 4172,6683 4172,6433 3922,6433 Z"/>
 <path fill="rgb(0,69,134)" stroke="none" d="M 4530,4973 L 4530,5223 4780,5223 4780,4973 4530,4973 Z"/>
 <path fill="none" stroke="rgb(0,69,134)" stroke-linejoin="round" d="M 4530,4973 L 4530,5223 4780,5223 4780,4973 4530,4973 Z"/>
 <path fill="rgb(0,69,134)" stroke="none" d="M 4530,1154 L 4530,1404 4780,1404 4780,1154 4530,1154 Z"/>
 <path fill="none" stroke="rgb(0,69,134)" stroke-linejoin="round" d="M 4530,1154 L 4530,1404 4780,1404 4780,1154 4530,1154 Z"/>
 <path fill="rgb(0,69,134)" stroke="none" d="M 4530,593 L 4530,843 4780,843 4780,593 4530,593 Z"/>
 <path fill="none" stroke="rgb(0,69,134)" stroke-linejoin="round" d="M 4530,593 L 4530,843 4780,843 4780,593 4530,593 Z"/>
 <path fill="rgb(0,69,134)" stroke="none" d="M 6555,930 L 6555,1180 6805,1180 6805,930 6555,930 Z"/>
 <path fill="none" stroke="rgb(0,69,134)" stroke-linejoin="round" d="M 6555,930 L 6555,1180 6805,1180 6805,930 6555,930 Z"/>
 <path fill="rgb(0,69,134)" stroke="none" d="M 7162,5534 L 7162,5784 7412,5784 7412,5534 7162,5534 Z"/>
 <path fill="none" stroke="rgb(0,69,134)" stroke-linejoin="round" d="M 7162,5534 L 7162,5784 7412,5784 7412,5534 7162,5534 Z"/>
 <path fill="rgb(0,69,134)" stroke="none" d="M 7364,1267 L 7364,1517 7614,1517 7614,1267 7364,1267 Z"/>
 <path fill="none" stroke="rgb(0,69,134)" stroke-linejoin="round" d="M 7364,1267 L 7364,1517 7614,1517 7614,1267 7364,1267 Z"/>
 <path fill="rgb(0,69,134)" stroke="none" d="M 7769,5984 L 7769,6234 8019,6234 8019,5984 7769,5984 Z"/>
 <path fill="none" stroke="rgb(0,69,134)" stroke-linejoin="round" d="M 7769,5984 L 7769,6234 8019,6234 8019,5984 7769,5984 Z"/>
 <path fill="rgb(0,69,134)" stroke="none" d="M 7769,2053 L 7769,2303 8019,2303 8019,2053 7769,2053 Z"/>
 <path fill="none" stroke="rgb(0,69,134)" stroke-linejoin="round" d="M 7769,2053 L 7769,2303 8019,2303 8019,2053 7769,2053 Z"/>
 <path fill="rgb(0,69,134)" stroke="none" d="M 7769,1042 L 7769,1292 8019,1292 8019,1042 7769,1042 Z"/>
 <path fill="none" stroke="rgb(0,69,134)" stroke-linejoin="round" d="M 7769,1042 L 7769,1292 8019,1292 8019,1042 7769,1042 Z"/>
 <path fill="rgb(0,69,134)" stroke="none" d="M 8174,2615 L 8174,2865 8424,2865 8424,2615 8174,2615 Z"/>
 <path fill="none" stroke="rgb(0,69,134)" stroke-linejoin="round" d="M 8174,2615 L 8174,2865 8424,2865 8424,2615 8174,2615 Z"/>
 <path fill="rgb(0,69,134)" stroke="none" d="M 8579,5534 L 8579,5784 8829,5784 8829,5534 8579,5534 Z"/>
 <path fill="none" stroke="rgb(0,69,134)" stroke-linejoin="round" d="M 8579,5534 L 8579,5784 8829,5784 8829,5534 8579,5534 Z"/>
 <path fill="rgb(0,69,134)" stroke="none" d="M 8579,3289 L 8579,3539 8829,3539 8829,3289 8579,3289 Z"/>
 <path fill="none" stroke="rgb(0,69,134)" stroke-linejoin="round" d="M 8579,3289 L 8579,3539 8829,3539 8829,3289 8579,3289 Z"/>
 <path fill="rgb(0,69,134)" stroke="none" d="M 9794,3401 L 9794,3651 10044,3651 10044,3401 9794,3401 Z"/>
 <path fill="none" stroke="rgb(0,69,134)" stroke-linejoin="round" d="M 9794,3401 L 9794,3651 10044,3651 10044,3401 9794,3401 Z"/>
 <path fill="rgb(0,69,134)" stroke="none" d="M 11212,5534 L 11212,5784 11462,5784 11462,5534 11212,5534 Z"/>
 <path fill="none" stroke="rgb(0,69,134)" stroke-linejoin="round" d="M 11212,5534 L 11212,5784 11462,5784 11462,5534 11212,5534 Z"/>
 <path fill="rgb(0,69,134)" stroke="none" d="M 12021,5759 L 12021,6009 12270,6009 12270,5759 12021,5759 Z"/>
 <path fill="none" stroke="rgb(0,69,134)" stroke-linejoin="round" d="M 12021,5759 L 12021,6009 12270,6009 12270,5759 12021,5759 Z"/>
 <text class="TextShape"><tspan class="TextParagraph" font-family="Liberation Sans, sans-serif" font-size="353px" font-weight="400"><tspan class="TextPosition" x="2329" y="7685"><tspan fill="rgb(0,0,0)" stroke="none">1</tspan></tspan></tspan></text>
 <text class="TextShape"><tspan class="TextParagraph" font-family="Liberation Sans, sans-serif" font-size="353px" font-weight="400"><tspan class="TextPosition" x="4353" y="7685"><tspan fill="rgb(0,0,0)" stroke="none">2</tspan></tspan></tspan></text>
 <text class="TextShape"><tspan class="TextParagraph" font-family="Liberation Sans, sans-serif" font-size="353px" font-weight="400"><tspan class="TextPosition" x="6378" y="7685"><tspan fill="rgb(0,0,0)" stroke="none">3</tspan></tspan></tspan></text>
 <text class="TextShape"><tspan class="TextParagraph" font-family="Liberation Sans, sans-serif" font-size="353px" font-weight="400"><tspan class="TextPosition" x="8403" y="7685"><tspan fill="rgb(0,0,0)" stroke="none">4</tspan></tspan></tspan></text>
 <text class="TextShape"><tspan class="TextParagraph" font-family="Liberation Sans, sans-serif" font-size="353px" font-weight="400"><tspan class="TextPosition" x="10428" y="7685"><tspan fill="rgb(0,0,0)" stroke="none">5</tspan></tspan></tspan></text>
 <text class="TextShape"><tspan class="TextParagraph" font-family="Liberation Sans, sans-serif" font-size="353px" font-weight="400"><tspan class="TextPosition" x="12452" y="7685"><tspan fill="rgb(0,0,0)" stroke="none">6</tspan></tspan></tspan></text>
 <text class="TextShape"><tspan class="TextParagraph" font-family="Liberation Sans, sans-serif" font-size="353px" font-weight="400"><tspan class="TextPosition" x="14477" y="7685"><tspan fill="rgb(0,0,0)" stroke="none">7</tspan></tspan></tspan></text>
 <text class="TextShape"><tspan class="TextParagraph" font-family="Liberation Sans, sans-serif" font-size="353px" font-weight="400"><tspan class="TextPosition" x="16502" y="7685"><tspan fill="rgb(0,0,0)" stroke="none">8</tspan></tspan></tspan></text>
 <text class="TextShape"><tspan class="TextParagraph" font-family="Liberation Sans, sans-serif" font-size="353px" font-weight="400"><tspan class="TextPosition" x="18527" y="7685"><tspan fill="rgb(0,0,0)" stroke="none">9</tspan></tspan></tspan></text>
 <text class="TextShape"><tspan class="TextParagraph" font-family="Liberation Sans, sans-serif" font-size="353px" font-weight="400"><tspan class="TextPosition" x="20454" y="7685"><tspan fill="rgb(0,0,0)" stroke="none">10</tspan></tspan></tspan></text>
 <text class="TextShape"><tspan class="TextParagraph" font-family="Liberation Sans, sans-serif" font-size="353px" font-weight="400"><tspan class="TextPosition" x="1784" y="7239"><tspan fill="rgb(0,0,0)" stroke="none">14</tspan></tspan></tspan></text>
 <text class="TextShape"><tspan class="TextParagraph" font-family="Liberation Sans, sans-serif" font-size="353px" font-weight="400"><tspan class="TextPosition" x="1784" y="6115"><tspan fill="rgb(0,0,0)" stroke="none">15</tspan></tspan></tspan></text>
 <text class="TextShape"><tspan class="TextParagraph" font-family="Liberation Sans, sans-serif" font-size="353px" font-weight="400"><tspan class="TextPosition" x="1784" y="4992"><tspan fill="rgb(0,0,0)" stroke="none">16</tspan></tspan></tspan></text>
 <text class="TextShape"><tspan class="TextParagraph" font-family="Liberation Sans, sans-serif" font-size="353px" font-weight="400"><tspan class="TextPosition" x="1784" y="3869"><tspan fill="rgb(0,0,0)" stroke="none">17</tspan></tspan></tspan></text>
 <text class="TextShape"><tspan class="TextParagraph" font-family="Liberation Sans, sans-serif" font-size="353px" font-weight="400"><tspan class="TextPosition" x="1784" y="2745"><tspan fill="rgb(0,0,0)" stroke="none">18</tspan></tspan></tspan></text>
 <text class="TextShape"><tspan class="TextParagraph" font-family="Liberation Sans, sans-serif" font-size="353px" font-weight="400"><tspan class="TextPosition" x="1784" y="1622"><tspan fill="rgb(0,0,0)" stroke="none">19</tspan></tspan></tspan></text>
 <text class="TextShape"><tspan class="TextParagraph" font-family="Liberation Sans, sans-serif" font-size="353px" font-weight="400"><tspan class="TextPosition" x="1784" y="499"><tspan fill="rgb(0,0,0)" stroke="none">20</tspan></tspan></tspan></text>
 <path fill="rgb(0,69,134)" stroke="none" d="M 21496,4135 L 21496,4431 21792,4431 21792,4135 21496,4135 Z"/>
 <path fill="none" stroke="rgb(0,69,134)" stroke-linejoin="round" d="M 21496,4135 L 21496,4431 21792,4431 21792,4135 21496,4135 Z"/>
 <path fill="rgb(255,66,14)" stroke="none" d="M 21496,4934 L 21644,5082 21792,4934 21644,4786 21496,4934 Z"/>
 <path fill="none" stroke="rgb(255,66,14)" stroke-linejoin="round" d="M 21496,4934 L 21644,5082 21792,4934 21644,4786 21496,4934 Z"/>
 <text class="TextShape"><tspan class="TextParagraph" font-family="Liberation Sans, sans-serif" font-size="494px" font-weight="400"><tspan class="TextPosition" x="21900" y="4460"><tspan fill="rgb(0,0,0)" stroke="none">salmon</tspan></tspan></tspan></text>
 <text class="TextShape"><tspan class="TextParagraph" font-family="Liberation Sans, sans-serif" font-size="494px" font-weight="400"><tspan class="TextPosition" x="21900" y="5111"><tspan fill="rgb(0,0,0)" stroke="none">sea bass</tspan></tspan></tspan></text>
 <text class="TextShape"><tspan class="TextParagraph" font-family="Liberation Sans, sans-serif" font-size="494px" font-weight="400"><tspan class="TextPosition" x="9642" y="8552"><tspan fill="rgb(0,0,0)" stroke="none">skin brightness</tspan></tspan></tspan></text>
 <text class="TextShape" transform="translate(1052,4654) rotate(-90) translate(-1052,-4654)"><tspan class="TextParagraph" font-family="Liberation Sans, sans-serif" font-size="494px" font-weight="400"><tspan class="TextPosition" x="1052" y="4654"><tspan fill="rgb(0,0,0)" stroke="none">length</tspan></tspan></tspan></text>
</svg>